<svg width="2125" height="512" xmlns="http://www.w3.org/2000/svg" xml:space="preserve" version="1.1">
 <defs>
  <linearGradient y2="0.82463" x2="1.25665" y1="0.31894" x1="0.07775" id="SVGID_1_">
   <stop stop-color="#80D8FF" offset="0"/>
   <stop stop-color="#004AFC" offset="1"/>
  </linearGradient>
 </defs>
 <g>
  <title>Layer 1</title>
  <g id="svg_1">
   <path id="svg_2" fill="url(#SVGID_1_)" d="m197.40001,343l145.6,-145.6l149,0c11,0 20,-9 20,-20l0,-157.4c0,-11 -9,-20 -20,-20l-157.3,0c-11,0 -20,9 -20,20l0,58.7l-117.3,0l0,-58.7c0,-11 -9,-20 -20,-20l-157.4,0c-11,0 -20,9 -20,20l0,157.3c0,11 9,20 20,20l157.3,0c11,0 20,-9 20,-20l0,-58.7l117.3,0l0,50.4l-145.5,145.7l-149,0c-11,0 -20,9 -20,20l0,157.3c0,11 9,20 20,20l157.3,0c11,0 20,-9 20,-20l0,-58.7l117.3,0l0,58.7c0,11 9,20 20,20l157.3,0c11,0 20,-9 20,-20l0,-157.3c0,-11 -9,-20 -20,-20l-157.3,0c-11,0 -20,9 -20,20l0,58.7l-117.3,0l0,-50.4zm-40,-185.6l-117.4,0l0,-117.4l117.3,0l0,117.4l0.1,0zm197.3,197.3l117.3,0l0,117.3l-117.3,0l0,-117.3zm0,-314.7l117.3,0l0,117.3l-117.3,0l0,-117.3zm-197.3,432l-117.4,0l0,-117.3l117.3,0l0,117.3l0.1,0z" class="st0"/>
   <g id="svg_3">
    <path id="svg_4" fill="#565656" d="m672.30001,350.1c-10.2,-4.4 -20.1,-11.3 -29.7,-20.7c-2.2,-1.8 -3.3,-4 -3.3,-6.6c0,-2.2 0.9,-4.2 2.6,-6.1c1.7,-1.8 3.7,-2.8 5.9,-2.8c2.2,0 4.2,0.9 6.1,2.8c14.4,15.8 32.3,23.8 53.9,23.8c13.3,0 24.3,-3.1 33,-9.4c8.7,-6.3 13.1,-14.5 13.1,-24.6c0,-7.9 -2.2,-14.5 -6.5,-19.8c-4.3,-5.3 -10,-9.5 -17,-12.8c-7,-3.3 -15.9,-6.7 -26.8,-10.2c-11.8,-3.5 -21.7,-7.4 -29.7,-11.6c-8,-4.2 -14.5,-9.9 -19.5,-17c-5,-7.1 -7.5,-16.1 -7.5,-26.9c0,-9.8 2.6,-18.4 7.9,-26c5.3,-7.6 12.6,-13.5 22.1,-17.8c9.5,-4.3 20.4,-6.5 32.7,-6.5c11.2,0 21.8,1.9 31.6,5.7c9.9,3.8 17.7,9.2 23.6,16.2c2.8,3.1 4.1,5.8 4.1,8c0,2 -0.9,3.9 -2.8,5.7c-1.8,1.8 -3.9,2.6 -6.1,2.6c-1.8,0 -3.4,-0.6 -4.7,-1.9c-5,-5.9 -11.6,-10.7 -19.9,-14.4c-8.3,-3.7 -17,-5.5 -26,-5.5c-13.4,0 -24.4,3 -32.9,9c-8.5,6 -12.7,14.1 -12.7,24.5c0,10.7 4,18.9 12.2,24.6c8.1,5.7 19.7,11 34.8,15.8c13.1,3.9 23.8,7.8 32.1,11.9c8.3,4.1 15.1,9.8 20.3,17.3c5.3,7.5 7.9,17.3 7.9,29.4c0,9.4 -2.7,17.9 -8.2,25.6c-5.4,7.6 -13,13.7 -22.7,18.1s-20.7,6.6 -33,6.6c-12.9,-0.4 -24.6,-2.6 -34.9,-7z" class="st1"/>
    <path id="svg_5" fill="#565656" d="m928.40001,173l-61.6,84.8l0,87.9c0,2.4 -0.8,4.4 -2.5,5.9c-1.7,1.6 -3.7,2.3 -6.1,2.3c-2.4,0 -4.4,-0.8 -5.9,-2.3c-1.6,-1.6 -2.3,-3.5 -2.3,-5.9l0,-87.6l-61.9,-84.6c-1.5,-1.7 -2.2,-3.6 -2.2,-5.8c0,-2.2 0.9,-4.1 2.8,-5.8c1.8,-1.7 3.9,-2.5 6.1,-2.5c2.9,0 5.3,1.3 6.9,3.9l57.2,77.9l55.8,-77.9c2,-2.6 4.4,-3.9 7.2,-3.9c2.2,0 4.1,0.9 5.8,2.6c1.7,1.8 2.5,3.6 2.5,5.7c-0.2,1.3 -0.7,3.1 -1.8,5.3z" class="st1"/>
    <path id="svg_6" fill="#565656" d="m971.00001,350.1c-10.2,-4.4 -20.1,-11.3 -29.7,-20.7c-2.2,-1.8 -3.3,-4 -3.3,-6.6c0,-2.2 0.9,-4.2 2.6,-6.1c1.7,-1.8 3.7,-2.8 5.9,-2.8c2.2,0 4.2,0.9 6.1,2.8c14.4,15.8 32.3,23.8 53.9,23.8c13.3,0 24.3,-3.1 33,-9.4c8.7,-6.3 13.1,-14.5 13.1,-24.6c0,-7.9 -2.2,-14.5 -6.5,-19.8c-4.3,-5.3 -10,-9.5 -17,-12.8c-7,-3.3 -15.9,-6.7 -26.8,-10.2c-11.8,-3.5 -21.7,-7.4 -29.7,-11.6c-8,-4.2 -14.5,-9.9 -19.5,-17c-5,-7.1 -7.5,-16.1 -7.5,-26.9c0,-9.8 2.6,-18.4 7.9,-26c5.3,-7.6 12.6,-13.5 22.1,-17.8c9.5,-4.3 20.4,-6.5 32.7,-6.5c11.2,0 21.8,1.9 31.6,5.7c9.9,3.8 17.7,9.2 23.6,16.2c2.8,3.1 4.1,5.8 4.1,8c0,2 -0.9,3.9 -2.8,5.7c-1.8,1.8 -3.9,2.6 -6.1,2.6c-1.8,0 -3.4,-0.6 -4.7,-1.9c-5,-5.9 -11.6,-10.7 -19.9,-14.4c-8.3,-3.7 -17,-5.5 -26,-5.5c-13.4,0 -24.4,3 -32.9,9c-8.5,6 -12.7,14.1 -12.7,24.5c0,10.7 4,18.9 12.2,24.6c8.1,5.7 19.7,11 34.8,15.8c13.1,3.9 23.8,7.8 32.1,11.9c8.3,4.1 15.1,9.8 20.3,17.3c5.3,7.5 7.9,17.3 7.9,29.4c0,9.4 -2.7,17.9 -8.2,25.6c-5.4,7.6 -13,13.7 -22.7,18.1s-20.7,6.6 -33,6.6c-12.9,-0.4 -24.6,-2.6 -34.9,-7z" class="st1"/>
    <path id="svg_7" fill="#565656" d="m1238.50001,162.8c1.6,1.5 2.3,3.4 2.3,5.8c0,2.4 -0.8,4.3 -2.3,5.7c-1.6,1.4 -3.5,2.1 -5.9,2.1l-57.2,0l0,169.4c0,2.4 -0.8,4.4 -2.5,5.9c-1.7,1.6 -3.7,2.3 -6.1,2.3c-2.6,0 -4.7,-0.8 -6.2,-2.3c-1.6,-1.6 -2.3,-3.5 -2.3,-5.9l0,-169.5l-57.2,0c-2.4,0 -4.4,-0.7 -5.9,-2.2c-1.6,-1.5 -2.3,-3.4 -2.3,-5.8c0,-2.2 0.8,-4 2.3,-5.5c1.6,-1.5 3.5,-2.2 5.9,-2.2l131.5,0c2.4,0 4.3,0.7 5.9,2.2z" class="st1"/>
    <path id="svg_8" fill="#565656" d="m1391.90001,340.2c1.6,1.7 2.3,3.6 2.3,5.8c0,2.4 -0.8,4.3 -2.3,5.8c-1.6,1.5 -3.5,2.2 -5.9,2.2l-101.4,0c-2.4,0 -4.4,-0.8 -5.9,-2.3c-1.6,-1.6 -2.3,-3.5 -2.3,-5.9l0,-177c0,-2.4 0.8,-4.4 2.3,-5.9c1.6,-1.6 3.5,-2.3 5.9,-2.3l101.4,0c2.4,0 4.4,0.8 5.9,2.3c1.6,1.6 2.3,3.5 2.3,5.9c0,2.4 -0.8,4.3 -2.3,5.8c-1.6,1.5 -3.5,2.2 -5.9,2.2l-92.3,0l0,69.4l79.9,0c2.4,0 4.4,0.8 5.9,2.3c1.6,1.6 2.3,3.5 2.3,5.9c0,2.4 -0.8,4.3 -2.3,5.8c-1.6,1.5 -3.5,2.2 -5.9,2.2l-79.9,0l0,75.2l92.3,0c2.3,0.1 4.3,0.9 5.9,2.6z" class="st1"/>
    <path id="svg_9" fill="#565656" d="m1607.40001,162.9c1.6,1.6 2.3,3.5 2.3,5.9l0,176.8c0,2.4 -0.8,4.4 -2.5,5.9c-1.7,1.6 -3.7,2.3 -6.1,2.3c-2.6,0 -4.7,-0.8 -6.4,-2.3c-1.7,-1.6 -2.5,-3.5 -2.5,-5.9l0,-152l-64.9,98.4c-1.8,2.4 -4,3.5 -6.4,3.3l-0.6,0c-2.2,0 -4.2,-1.1 -6.1,-3.3l-64.9,-98.9l0,152.5c0,2.4 -0.8,4.4 -2.3,5.9c-1.6,1.6 -3.5,2.3 -5.9,2.3c-2.4,0 -4.3,-0.8 -5.8,-2.3c-1.5,-1.6 -2.2,-3.5 -2.2,-5.9l0,-176.8c0,-2.2 0.8,-4.1 2.3,-5.8c1.6,-1.7 3.5,-2.5 5.9,-2.5c1.3,0 2.7,0.3 4.1,1c1.5,0.6 2.6,1.5 3.3,2.6l72.4,108.6l72.9,-108.6c2,-2.8 4.5,-4 7.5,-3.6c2.4,0.1 4.3,0.8 5.9,2.4z" class="st1"/>
    <path id="svg_10" fill="#565656" d="m1840.50001,169c8.5,5.6 15.3,13.2 20.4,22.7c5.2,9.5 7.7,19.9 7.7,31.1c0,11.1 -2.6,21.4 -7.7,30.9c-5.2,9.6 -12,17.2 -20.4,22.8c-8.5,5.6 -17.4,8.4 -26.8,8.4l-48.1,0l0,52.2c0,5 -1.5,9 -4.4,12.2c-2.9,3.1 -6.8,4.7 -11.6,4.7c-4.6,0 -8.4,-1.6 -11.3,-4.8c-2.9,-3.2 -4.4,-7.2 -4.4,-12l0,-159.8c0,-4.8 1.6,-8.8 4.8,-12c3.2,-3.2 7.2,-4.8 12,-4.8l63,0c9.4,0 18.3,2.8 26.8,8.4zm-16.5,80c3.4,-2.9 6.2,-6.8 8.3,-11.5c2.1,-4.7 3.2,-9.6 3.2,-14.8c0,-5.2 -1.1,-10.1 -3.2,-14.8c-2.1,-4.7 -4.9,-8.5 -8.3,-11.3c-3.4,-2.9 -6.9,-4.3 -10.4,-4.3l-48.1,0l0,61.1l48.1,0c3.6,0 7,-1.5 10.4,-4.4z" class="st1"/>
    <path id="svg_11" fill="#565656" d="m2057.80001,332.7c1.4,2.4 2.1,4.9 2.1,7.5c0,3.3 -1.1,6.4 -3.3,9.1c-2.8,3.3 -7,5 -12.7,5c-4.4,0 -8.5,-1 -12.2,-3c-13.3,-7.6 -19.9,-22.9 -19.9,-46.1c0,-6.6 -2.2,-11.9 -6.5,-15.8c-4.3,-3.9 -10.5,-5.8 -18.7,-5.8l-51.7,0l0,53.6c0,5 -1.3,9 -4,12.2c-2.7,3.1 -6.2,4.7 -10.6,4.7c-5.3,0 -10,-1.6 -14,-4.8c-4,-3.2 -5.9,-7.2 -5.9,-12l0,-159.9c0,-4.8 1.6,-8.8 4.8,-12c3.2,-3.2 7.2,-4.8 12,-4.8l79.6,0c9.6,0 18.6,2.6 27.1,7.7c8.5,5.2 15.2,12.3 20.3,21.3c5.1,9 7.6,19.2 7.6,30.4c0,9.2 -2.5,18.2 -7.5,26.9c-5,8.8 -11.4,15.7 -19.3,20.9c11.6,8.1 18,19 19.1,32.6c0.6,2.9 0.8,5.8 0.8,8.6c0.7,5.7 1.5,9.8 2.2,12.3c0.7,2.5 2.4,4.4 5,5.7c2.4,1.4 4.3,3.3 5.7,5.7zm-52.6,-82.3c3.1,-3.1 5.7,-7.3 7.7,-12.6c2,-5.3 3,-10.9 3,-17c0,-5.2 -1,-9.9 -3,-14.2c-2,-4.3 -4.6,-7.8 -7.7,-10.4c-3.1,-2.6 -6.4,-3.9 -9.7,-3.9l-60.5,0l0,62.7l60.5,0c3.3,0.1 6.5,-1.5 9.7,-4.6z" class="st1"/>
    <path id="svg_12" fill="#565656" d="m2119.50001,349.1c-3.5,3.2 -7.6,4.8 -12.2,4.8c-5,0 -9.1,-1.6 -12.3,-4.8c-3.2,-3.2 -4.8,-7.2 -4.8,-12l0,-159.7c0,-4.8 1.7,-8.8 5,-12c3.3,-3.2 7.6,-4.8 12.7,-4.8c4.6,0 8.6,1.6 11.9,4.8c3.3,3.2 5,7.2 5,12l0,159.7c0,4.8 -1.8,8.8 -5.3,12z" class="st1"/>
   </g>
  </g>
 </g>
</svg>