<svg width="1486" height="845" xmlns="http://www.w3.org/2000/svg" data-name="Capa 1">
 <defs>
  <linearGradient y2="0.82453" x2="1.2566" y1="0.31885" x1="0.0777" id="New_Gradient_Swatch_2">
   <stop stop-color="#80d8ff" offset="0"/>
   <stop stop-color="#004afc" offset="1"/>
  </linearGradient>
 </defs>
 <g>
  <title>Layer 1</title>
  <path id="svg_1" fill="url(#New_Gradient_Swatch_2)" d="m690.02,342.95l145.67,-145.62l149,0a20,20 0 0 0 20,-20l0,-157.33a20,20 0 0 0 -20,-20l-157.33,0a20,20 0 0 0 -20,20l0,58.66l-117.34,0l0,-58.66a20,20 0 0 0 -20,-20l-157.33,0a20,20 0 0 0 -20,20l0,157.33a20,20 0 0 0 20,20l157.33,0a20,20 0 0 0 20,-20l0,-58.67l117.34,0l0,50.38l-145.62,145.62l-149.05,0a20,20 0 0 0 -20,20l0,157.34a20,20 0 0 0 20,20l157.33,0a20,20 0 0 0 20,-20l0,-58.67l117.34,0l0,58.67a20,20 0 0 0 20,20l157.33,0a20,20 0 0 0 20,-20l0,-157.34a20,20 0 0 0 -20,-20l-157.33,0a20,20 0 0 0 -20,20l0,58.67l-117.34,0l0,-50.38zm-40,-185.62l-117.33,0l0,-117.33l117.33,0l0,117.33zm197.34,197.33l117.33,0l0,117.34l-117.33,0l0,-117.34zm0,-314.66l117.33,0l0,117.33l-117.33,0l0,-117.33zm-197.34,432l-117.33,0l0,-117.34l117.33,0l0,117.34z" class="cls-1"/>
  <path id="svg_2" fill="#565656" d="m33.02,838.04q-15.35,-6.63 -29.7,-20.72a8.34,8.34 0 0 1 -3.32,-6.63a8.63,8.63 0 0 1 2.62,-6.08a8,8 0 0 1 6,-2.77a8.45,8.45 0 0 1 6.07,2.77q21.56,23.76 53.89,23.76q19.89,0 33,-9.4t13.11,-24.59q0,-11.88 -6.49,-19.75a48.48,48.48 0 0 0 -17,-12.85a224.46,224.46 0 0 0 -26.8,-10.23a162.85,162.85 0 0 1 -29.7,-11.6a54.33,54.33 0 0 1 -19.48,-17q-7.47,-10.62 -7.46,-26.94a44.38,44.38 0 0 1 7.87,-26q7.88,-11.33 22.11,-17.82t32.74,-6.5a87.64,87.64 0 0 1 31.64,5.67q14.77,5.67 23.62,16.16q4.15,4.71 4.15,8a7.8,7.8 0 0 1 -2.76,5.66a8.68,8.68 0 0 1 -6.08,2.63a6.38,6.38 0 0 1 -4.7,-1.94q-7.46,-8.83 -19.9,-14.37a63.34,63.34 0 0 0 -26,-5.52q-20.17,0 -32.88,9t-12.71,24.45q0,16 12.16,24.59t34.82,15.8q19.62,5.8 32.05,11.88a52.76,52.76 0 0 1 20.31,17.28q7.88,11.19 7.88,29.42a43.1,43.1 0 0 1 -8.15,25.56q-8.16,11.48 -22.66,18.1t-33,6.63q-19.91,-0.02 -35.25,-6.65z" class="cls-2"/>
  <path id="svg_3" fill="#565656" d="m289.03,660.92l-61.62,84.83l0,87.87a7.8,7.8 0 0 1 -2.49,5.94a8.52,8.52 0 0 1 -6.08,2.35a8,8 0 0 1 -8.29,-8.29l0,-87.59l-61.86,-84.56a8.41,8.41 0 0 1 -2.21,-5.8a7.59,7.59 0 0 1 2.76,-5.8a8.89,8.89 0 0 1 6.08,-2.49a7.81,7.81 0 0 1 6.91,3.87l57.2,77.92l55.81,-77.92c2,-2.58 4.42,-3.87 7.19,-3.87a7.76,7.76 0 0 1 5.8,2.63a8.11,8.11 0 0 1 2.49,5.66a12.9,12.9 0 0 1 -1.69,5.25z" class="cls-2"/>
  <path id="svg_4" fill="#565656" d="m331.69,838.04q-15.35,-6.63 -29.71,-20.72a8.36,8.36 0 0 1 -3.31,-6.63a8.63,8.63 0 0 1 2.62,-6.08a8,8 0 0 1 5.94,-2.77a8.47,8.47 0 0 1 6.08,2.77q21.55,23.76 53.88,23.76q19.9,0 33,-9.4t13.13,-24.59q0,-11.88 -6.49,-19.75a48.57,48.57 0 0 0 -17,-12.85a224.46,224.46 0 0 0 -26.8,-10.23a163.27,163.27 0 0 1 -29.71,-11.6a54.5,54.5 0 0 1 -19.48,-17q-7.46,-10.62 -7.46,-26.94a44.39,44.39 0 0 1 7.88,-26q7.88,-11.33 22.1,-17.82t32.75,-6.5a87.64,87.64 0 0 1 31.64,5.67q14.77,5.67 23.62,16.16q4.15,4.71 4.15,8a7.77,7.77 0 0 1 -2.77,5.66a8.64,8.64 0 0 1 -6.06,2.64a6.37,6.37 0 0 1 -4.69,-1.94a54.57,54.57 0 0 0 -19.9,-14.37a63.34,63.34 0 0 0 -26,-5.52q-20.18,0 -32.88,9t-12.71,24.45q0,16 12.15,24.59t34.88,15.79q19.62,5.8 32,11.88a52.76,52.76 0 0 1 20.31,17.28q7.88,11.19 7.88,29.42a43.1,43.1 0 0 1 -8.15,25.56q-8.16,11.48 -22.66,18.1t-33,6.63q-19.87,-0.02 -35.23,-6.65z" class="cls-2"/>
  <path id="svg_5" fill="#565656" d="m599.19,650.7a7.62,7.62 0 0 1 2.35,5.8a7.2,7.2 0 0 1 -2.35,5.67a8.67,8.67 0 0 1 -5.94,2.07l-57.2,0l0,169.38a7.83,7.83 0 0 1 -2.48,5.94a8.52,8.52 0 0 1 -6.08,2.35a8.38,8.38 0 0 1 -6.22,-2.35a8,8 0 0 1 -2.35,-5.94l0,-169.38l-57.23,0a8.35,8.35 0 0 1 -5.94,-2.21a7.6,7.6 0 0 1 -2.35,-5.81a7.24,7.24 0 0 1 2.35,-5.52a8.35,8.35 0 0 1 5.94,-2.21l131.53,0a8.35,8.35 0 0 1 5.97,2.21z" class="cls-2"/>
  <path id="svg_6" fill="#565656" d="m752.54,828.09a8.19,8.19 0 0 1 2.35,5.81a7.58,7.58 0 0 1 -2.35,5.8a8.34,8.34 0 0 1 -5.94,2.21l-101.4,0a8,8 0 0 1 -8.29,-8.29l0,-176.8a8,8 0 0 1 8.29,-8.29l101.4,0a8,8 0 0 1 8.29,8.29a7.58,7.58 0 0 1 -2.35,5.8a8.29,8.29 0 0 1 -5.94,2.21l-92.29,0l0,69.36l79.86,0a8,8 0 0 1 8.29,8.28a7.62,7.62 0 0 1 -2.35,5.81a8.35,8.35 0 0 1 -5.94,2.21l-79.86,0l0,75.16l92.29,0a7.84,7.84 0 0 1 5.94,2.44z" class="cls-2"/>
  <path id="svg_7" fill="#565656" d="m968.07,650.82a8.06,8.06 0 0 1 2.35,5.94l0,176.86a7.8,7.8 0 0 1 -2.49,5.94a8.52,8.52 0 0 1 -6.08,2.35a8.86,8.86 0 0 1 -6.35,-2.35a7.8,7.8 0 0 1 -2.49,-5.94l0,-152l-64.93,98.37q-2.78,3.6 -6.36,3.32l-0.55,0q-3.32,0 -6.08,-3.32l-64.94,-98.92l0,152.55a8,8 0 0 1 -8.29,8.29a7.58,7.58 0 0 1 -5.8,-2.35a8.32,8.32 0 0 1 -2.21,-5.94l0,-176.8a8.19,8.19 0 0 1 2.35,-5.81a7.83,7.83 0 0 1 5.94,-2.48a10.49,10.49 0 0 1 4.15,1a7.45,7.45 0 0 1 3.31,2.63l72.4,108.59l73,-108.59q3,-4.14 7.46,-3.59a7.7,7.7 0 0 1 5.61,2.25z" class="cls-2"/>
  <path id="svg_8" fill="#565656" d="m1201.14,656.91a62.59,62.59 0 0 1 20.45,22.66a66,66 0 0 1 0,62a62,62 0 0 1 -20.45,22.79a47.71,47.71 0 0 1 -26.8,8.43l-48.08,0l0,52.22q0,7.47 -4.42,12.16a15.18,15.18 0 0 1 -11.61,4.7a14.66,14.66 0 0 1 -11.33,-4.84a17.15,17.15 0 0 1 -4.42,-12l0,-159.69a16.52,16.52 0 0 1 16.86,-16.85l63,0a47.77,47.77 0 0 1 26.8,8.42zm-16.44,80a32.59,32.59 0 0 0 8.29,-11.47a35.94,35.94 0 0 0 0,-29.56a31.15,31.15 0 0 0 -8.29,-11.33q-5.12,-4.29 -10.36,-4.29l-48.08,0l0,61.07l48.08,0q5.25,0 10.35,-4.42l0.01,0z" class="cls-2"/>
  <path id="svg_9" fill="#565656" d="m1418.47,820.63a14.78,14.78 0 0 1 2.07,7.46a14.26,14.26 0 0 1 -3.32,9.12q-4.14,5 -12.71,5a24.91,24.91 0 0 1 -12.16,-3q-19.89,-11.34 -19.89,-46.15q0,-9.95 -6.5,-15.75t-18.65,-5.8l-51.62,0l0,53.6q0,7.47 -4,12.16a13.28,13.28 0 0 1 -10.64,4.7a21.4,21.4 0 0 1 -14,-4.84a14.89,14.89 0 0 1 -5.94,-12l0,-159.79a16.52,16.52 0 0 1 16.86,-16.85l79.58,0a51.32,51.32 0 0 1 27.08,7.73a57.24,57.24 0 0 1 20.31,21.28a61.1,61.1 0 0 1 7.59,30.4a53.81,53.81 0 0 1 -7.46,26.94a59.43,59.43 0 0 1 -19.34,20.86q17.42,12.16 19.07,32.6a46.78,46.78 0 0 1 0.83,8.57a86.74,86.74 0 0 0 2.21,12.3a9.09,9.09 0 0 0 5,5.66a16.48,16.48 0 0 1 5.63,5.8zm-52.64,-82.34a35.7,35.7 0 0 0 7.73,-12.57a46.74,46.74 0 0 0 3,-17a33.12,33.12 0 0 0 -3,-14.23a29.28,29.28 0 0 0 -7.73,-10.36a15.12,15.12 0 0 0 -9.67,-3.87l-60.47,0l0,62.73l60.52,0q4.92,0 9.62,-4.7z" class="cls-2"/>
  <path id="svg_10" fill="#565656" d="m1480.22,837.07a17.37,17.37 0 0 1 -12.16,4.84a16.62,16.62 0 0 1 -12.29,-4.84a16.28,16.28 0 0 1 -4.84,-12l0,-159.73a16.08,16.08 0 0 1 5,-12a17.48,17.48 0 0 1 12.71,-4.83a16.47,16.47 0 0 1 11.88,4.83a16.11,16.11 0 0 1 5,12l0,159.71a15.65,15.65 0 0 1 -5.3,12.02z" class="cls-2"/>
 </g>
</svg>