<svg id="Capa_1" enable-background="new 0 0 512 512" height="512" viewBox="0 0 512 512" width="512" xmlns="http://www.w3.org/2000/svg" xmlns:xlink="http://www.w3.org/1999/xlink"><linearGradient id="SVGID_1_" gradientUnits="userSpaceOnUse" x1="0" x2="512" y1="256" y2="256"><stop offset="0" stop-color="#80d8ff"/><stop offset="1" stop-color="#ea80fc"/></linearGradient><path d="m197.333 342.951 145.617-145.617h149.05c11.046 0 20-8.954 20-20v-157.334c0-11.046-8.954-20-20-20h-157.333c-11.046 0-20 8.954-20 20v58.667h-117.334v-58.667c0-11.046-8.954-20-20-20h-157.333c-11.046 0-20 8.954-20 20v157.333c0 11.046 8.954 20 20 20h157.333c11.046 0 20-8.954 20-20v-58.667h117.333v50.383l-145.617 145.618h-149.049c-11.046 0-20 8.954-20 20v157.333c0 11.046 8.954 20 20 20h157.333c11.046 0 20-8.954 20-20v-58.667h117.333v58.667c0 11.046 8.954 20 20 20h157.334c11.046 0 20-8.954 20-20v-157.333c0-11.046-8.954-20-20-20h-157.333c-11.046 0-20 8.954-20 20v58.667h-117.334zm-40-185.618h-117.333v-117.333h117.333zm197.334 197.334h117.333v117.333h-117.333zm0-314.667h117.333v117.333h-117.333zm-197.334 432h-117.333v-117.333h117.333z" fill="url(#SVGID_1_)"/></svg>